PathFileType	4	(x/y/z)	S04_M20_T34.trc
DataRate	CameraRate	NumFrames	NumMarkers	Units	OrigDataRate	OrigDataStartFrame	OrigNumFrames
240	240	4	51	mm	240	67	535
Frame#	Time	Sternum			R.Acromium			L.Acromium			Top.Head			R.ASIS			L.ASIS			R.PSIS			L.PSIS			R.Great.Tro			L.Great.Tro			R.Iliac.Crest			L.Iliac.Crest			V.Sacral			R.Thigh.Upper.Post			R.Thigh.Lower.Ant			R.Thigh.Lower.Post			R.Thigh.Upper.Ant			R.Knee.Lat			R.Knee.Med			R.Shank.Upper.Post			R.Shank.Lower.Ant			R.Shank.Lower.Post			R.Shank.Upper.Ant			R.Ankle.Lat			R.Ankle.Med			R.Heel.Upper			R.Heel.Med			R.Heel.Lat			R.Toe.Lat			R.Toe.Med			R.Toe.Tip			L.Thigh.Upper.Post			L.Thigh.Lower.Ant			L.Thigh.Lower.Post			L.Thigh.Upper.Ant			L.Knee.Lat			L.Knee.Med			L.Shank.Upper.Post			L.Shank.Lower.Ant			L.Shank.Lower.Post			L.Shank.Upper.Ant			L.Ankle.Lat			L.Ankle.Med			L.Heel.Upper			L.Heel.Med			L.Heel.Lat			L.Toe.Lat			L.Toe.Med			L.Toe.Tip			Cervical.Spine			Back			
		X1	Y1	Z1	X2	Y2	Z2	X3	Y3	Z3	X4	Y4	Z4	X5	Y5	Z5	X6	Y6	Z6	X7	Y7	Z7	X8	Y8	Z8	X9	Y9	Z9	X10	Y10	Z10	X11	Y11	Z11	X12	Y12	Z12	X13	Y13	Z13	X14	Y14	Z14	X15	Y15	Z15	X16	Y16	Z16	X17	Y17	Z17	X18	Y18	Z18	X19	Y19	Z19	X20	Y20	Z20	X21	Y21	Z21	X22	Y22	Z22	X23	Y23	Z23	X24	Y24	Z24	X25	Y25	Z25	X26	Y26	Z26	X27	Y27	Z27	X28	Y28	Z28	X29	Y29	Z29	X30	Y30	Z30	X31	Y31	Z31	X32	Y32	Z32	X33	Y33	Z33	X34	Y34	Z34	X35	Y35	Z35	X36	Y36	Z36	X37	Y37	Z37	X38	Y38	Z38	X39	Y39	Z39	X40	Y40	Z40	X41	Y41	Z41	X42	Y42	Z42	X43	Y43	Z43	X44	Y44	Z44	X45	Y45	Z45	X46	Y46	Z46	X47	Y47	Z47	X48	Y48	Z48	X49	Y49	Z49	X50	Y50	Z50	X51	Y51	Z51	

67	0.275	-433.64	1253.8	278.26	-558.07	1487.2	448.99	-575.08	1464.1	100.14	-536.82	1808.2	257.93	-473.86	959.48	430.24	-447.26	991.28	179.77	-676.56	1012.7	308.01	-661.86	1020.8	229.26	-575.95	883.39	477.36	-551.42	910.96	99.104	-560.56	1061.5	464.12	-553.73	1065.5	120.78	-691.46	975.57	265.47	-590.69	621.98	468.31	-516.64	534.53	447.51	-593.99	531.54	455.85	-504.29	644.05	464.37	-586.75	464.66	451.74	-593.92	463.67	315.22	-804.98	389.39	438.42	-831.8	289.39	402.42	-863	350.46	423.33	-775.86	331.49	426.04	-952.93	278.97	404.57	-923.03	263.41	318.68	-1001.8	320.36	342.45	-1021.3	300.31	310.96	-1032.4	303.39	373.73	-974.64	147.71	433.71	-943.44	115.28	320.61	-904.86	67.493	374.18	-498.82	668.52	120.16	-391.08	605.17	137.99	-462.78	588.6	140.54	-431.87	682.75	116.04	-397.19	513.57	155.63	-400.75	506.62	281.82	-473.17	328.73	156.79	-400.4	245.43	169.33	-464.89	251.88	168.5	-408.38	321	157.67	-421.37	97.388	187.72	-422.32	109.72	282.41	-500.62	68.684	236.2	-493.04	45.079	271.26	-496.84	39.487	209.87	-312.09	40.893	171.94	-282.02	51.949	287.51	-225.04	62.998	238.83	-616.15	1528.7	279.96	-694.48	1269.7	268.39
68	0.27917	-428.63	1254.8	277.98	-553.12	1488.1	448.8	-570.1	1465.1	99.938	-531.78	1809.2	257.8	-468.29	960.56	429.78	-442.38	992.17	179.22	-671.28	1013.6	308.14	-656.75	1021.7	229.34	-569.87	884.31	477.23	-546.8	911.68	98.957	-555.07	1062.5	463.88	-548.78	1066.4	120.57	-686.32	976.48	265.63	-581.59	622.51	468.26	-506.62	535.91	447.26	-583.93	532.07	455.71	-495.45	645.53	464.18	-576	465.46	451.44	-583.17	464.56	314.83	-794.15	390.66	437.89	-821.1	290.58	402.15	-852.2	351.8	422.89	-765.11	332.67	425.73	-942.22	280.51	404.14	-912.31	264.58	318.31	-991.39	321.33	341.77	-1011	300.91	310.46	-1021.9	304.43	373.17	-963.35	149.49	434.18	-932.2	116.33	321.24	-893.33	69.142	375.07	-495.28	669.09	120.1	-388	604.98	137.96	-459.72	588.88	140.47	-428.29	682.82	115.95	-394.76	513.39	155.64	-398.29	506.49	281.8	-471.75	328.92	156.95	-399.35	245.3	169.43	-463.81	252.04	168.68	-407	320.91	157.77	-421.16	97.534	187.92	-422.04	109.73	282.63	-500.54	68.814	236.34	-492.99	45.135	271.33	-496.76	39.682	209.92	-312.01	40.829	171.9	-281.86	51.466	287.56	-224.89	62.349	238.84	-611.14	1529.6	279.78	-689.42	1270.6	268.11
69	0.28333	-423.64	1255.8	277.71	-548.19	1489	448.61	-565.13	1466.2	99.74	-526.77	1810.1	257.69	-462.74	961.66	429.33	-437.51	993.06	178.66	-666.02	1014.5	308.28	-651.66	1022.5	229.44	-563.81	885.26	477.11	-542.22	912.41	98.824	-549.59	1063.6	463.64	-543.84	1067.4	120.35	-681.19	977.41	265.81	-572.51	623.12	468.22	-496.62	537.37	447.01	-573.88	532.68	455.59	-486.64	647.08	464	-565.27	466.35	451.14	-572.43	465.53	314.46	-783.3	391.84	437.37	-810.29	291.66	401.89	-841.34	353.01	422.45	-754.29	333.79	425.41	-931.39	281.81	403.72	-901.47	265.57	317.96	-980.91	322.07	341.13	-1000.5	301.28	310	-1011.3	305.21	372.65	-951.87	151	434.57	-920.74	117.22	321.8	-881.56	70.637	375.85	-491.82	669.66	120.05	-385	604.78	137.94	-456.75	589.17	140.4	-424.78	682.9	115.86	-392.42	513.21	155.66	-395.96	506.35	281.76	-470.4	329.11	157.1	-398.35	245.17	169.53	-462.78	252.21	168.86	-405.69	320.81	157.86	-420.97	97.684	188.11	-421.77	109.74	282.85	-500.46	68.942	236.48	-492.96	45.19	271.41	-496.68	39.875	209.97	-311.94	40.779	171.85	-281.71	51.013	287.61	-224.74	61.747	238.84	-606.15	1530.6	279.6	-684.37	1271.5	267.83
70	0.2875	-418.67	1256.8	277.45	-543.28	1490	448.43	-560.19	1467.2	99.548	-521.78	1811	257.61	-457.21	962.76	428.88	-432.65	993.94	178.1	-660.77	1015.4	308.43	-646.58	1023.5	229.55	-557.76	886.23	477.01	-537.69	913.15	98.703	-544.13	1064.6	463.41	-538.91	1068.4	120.14	-676.07	978.35	266	-563.44	623.8	468.2	-486.66	538.91	446.74	-563.85	533.36	455.47	-477.85	648.7	463.83	-554.56	467.31	450.83	-561.69	466.58	314.09	-772.42	392.93	436.85	-799.38	292.64	401.64	-830.44	354.08	422.02	-743.4	334.84	425.1	-920.46	282.89	403.32	-890.53	266.37	317.64	-970.33	322.58	340.55	-989.87	301.44	309.56	-1000.6	305.72	372.15	-940.21	152.25	434.9	-909.08	117.95	322.28	-869.55	71.971	376.52	-488.42	670.24	120	-382.07	604.58	137.91	-453.88	589.47	140.33	-421.33	682.97	115.78	-390.17	513.03	155.67	-393.74	506.19	281.71	-469.11	329.29	157.25	-397.4	245.05	169.63	-461.8	252.36	169.03	-404.45	320.73	157.96	-420.79	97.837	188.31	-421.53	109.75	283.07	-500.38	69.07	236.61	-492.92	45.245	271.49	-496.6	40.067	210.01	-311.87	40.742	171.81	-281.57	50.59	287.65	-224.61	61.188	238.84	-601.18	1531.6	279.43	-679.34	1272.4	267.56
